HIERARCHY
ROOT Hips
{
	OFFSET 0.000000 88.474243 0.000000
	CHANNELS 6 Xposition Yposition Zposition Zrotation Yrotation Xrotation 
	JOINT Hips_Spine
	{
		OFFSET 0.000000 0.000000 0.000000
		CHANNELS 3 Zrotation Yrotation Xrotation
		JOINT Spine
		{
			OFFSET 0.005100 8.711998 -0.691000
			CHANNELS 3 Zrotation Yrotation Xrotation
			JOINT Spine1
			{
				OFFSET -0.009200 8.660301 -1.275000
				CHANNELS 3 Zrotation Yrotation Xrotation
				JOINT Spine2
				{
					OFFSET 0.006300 9.852501 -1.857000
					CHANNELS 3 Zrotation Yrotation Xrotation
					JOINT Spine2_Neck
					{
						OFFSET 0.000000 0.000000 0.000000
						CHANNELS 3 Zrotation Yrotation Xrotation
						JOINT Neck
						{
							OFFSET 0.016300 11.420799 -0.263300
							CHANNELS 3 Zrotation Yrotation Xrotation
							End Site #name: Head
							{
								OFFSET -0.019200 9.262405 2.362500
							}
						}
					}
					JOINT Spine2_LeftShoulder
					{
						OFFSET 0.000000 0.000000 0.000000
						CHANNELS 3 Zrotation Yrotation Xrotation
						JOINT LeftShoulder
						{
							OFFSET 5.616900 6.732201 -0.345700
							CHANNELS 3 Zrotation Yrotation Xrotation
							JOINT LeftArm
							{
								OFFSET 10.664888 -0.183372 -2.440700
								CHANNELS 3 Zrotation Yrotation Xrotation
								JOINT LeftForeArm
								{
									OFFSET 27.459126 0.000000 0.000000
									CHANNELS 3 Zrotation Yrotation Xrotation
									End Site #name: LeftHand
									{
										OFFSET 21.306858 0.000000 0.000000
									}
								}
							}
						}
					}
					JOINT Spine2_RightShoulder
					{
						OFFSET 0.000000 0.000000 0.000000
						CHANNELS 3 Zrotation Yrotation Xrotation
						JOINT RightShoulder
						{
							OFFSET -5.580300 6.737503 -0.344400
							CHANNELS 3 Zrotation Yrotation Xrotation
							JOINT RightArm
							{
								OFFSET -10.679335 -0.188484 -2.383900
								CHANNELS 3 Zrotation Yrotation Xrotation
								JOINT RightForeArm
								{
									OFFSET -27.503529 0.000000 0.000000
									CHANNELS 3 Zrotation Yrotation Xrotation
									End Site #name: RightHand
									{
										OFFSET -21.306808 0.000000 0.000000
									}
								}
							}
						}
					}
				}
			}
		}
	}
	JOINT Hips_LeftUpLeg
	{
		OFFSET 0.000000 0.000000 0.000000
		CHANNELS 3 Zrotation Yrotation Xrotation
		JOINT LeftUpLeg
		{
			OFFSET 6.857700 -6.739601 0.312100
			CHANNELS 3 Zrotation Yrotation Xrotation
			JOINT LeftLeg
			{
				OFFSET -0.367590 -34.731552 -4.572400
				CHANNELS 3 Zrotation Yrotation Xrotation
				End Site #name: LeftFoot
				{
					OFFSET 0.367590 -34.656704 -6.067400
				}
			}
		}
	}
	JOINT Hips_RightUpLeg
	{
		OFFSET 0.000000 0.000000 0.000000
		CHANNELS 3 Zrotation Yrotation Xrotation
		JOINT RightUpLeg
		{
			OFFSET -6.876100 -6.733299 0.301000
			CHANNELS 3 Zrotation Yrotation Xrotation
			JOINT RightLeg
			{
				OFFSET 0.347353 -34.795158 -4.515900
				CHANNELS 3 Zrotation Yrotation Xrotation
				End Site #name: RightFoot
				{
					OFFSET -0.347353 -34.589367 -6.070300
				}
			}
		}
	}
}
MOTION
Frames: 7
Frame Time: 0.041667
0.057554 0.008180 0.011707 -0.995720 -3.652107 -1.936046 0.000000 0.000000 0.000000 0.875922 1.292960 8.310392 -0.787090 0.871107 0.357358 0.000000 0.000000 0.000000 -0.353827 -0.015958 -1.932367 1.155305 -1.752640 4.694261 -1.591377 -0.211432 0.041812 -4.910736 -6.004601 1.513149 -64.604974 3.865409 42.446398 0.166804 -23.145605 -0.321433 -0.545802 0.585984 0.393111 11.026691 -2.617742 1.843998 60.848884 24.697940 17.746444 178.896319 65.007480 179.747010 0.000000 0.000000 0.000000 -0.376009 8.176204 -16.512592 3.917328 5.261124 19.517737 0.000000 0.000000 0.000000 -1.791003 -10.096692 -11.341179 -1.741464 -3.105166 17.179573 
0.082622 0.053492 -0.045235 -1.107470 -3.357992 -1.708113 0.000000 0.000000 0.000000 -0.389480 0.454427 4.242945 -0.847976 0.516808 1.091428 0.000000 0.000000 0.000000 -0.643665 -0.244846 0.128436 3.014131 -1.443481 5.544639 -0.562038 -0.268178 0.992294 -3.780883 2.010186 0.268474 -61.895615 5.912157 47.264268 0.144529 -19.200374 0.294064 -1.194710 -0.087199 0.899187 9.927558 -1.646904 0.722309 58.278150 32.552975 3.561687 179.241587 51.472646 179.830080 0.000000 0.000000 -0.000000 0.302215 9.979223 -15.745940 3.140323 5.364458 17.949557 0.000000 0.000000 0.000000 -1.888426 -10.335841 -11.745087 -1.855701 -3.106948 16.974465 
0.188753 0.048697 -0.106990 -1.393760 -3.300402 -1.507389 0.000000 0.000000 0.000000 -0.448162 0.299518 3.639581 -0.693149 0.254512 1.687675 0.000000 0.000000 0.000000 -0.810976 -0.305276 0.523981 2.905577 -1.269174 4.894507 -0.836868 0.008349 2.147746 -5.899052 4.222016 -0.123446 -62.584221 2.895344 41.815927 0.054662 -13.606639 0.104669 -1.132174 -0.055231 1.450551 10.115980 -2.148231 0.332847 53.514847 27.573174 0.533187 179.445846 53.181269 -179.935501 0.000000 0.000000 -0.000000 0.774227 11.135864 -16.122121 3.252719 5.482175 18.098016 -0.000000 0.000000 0.000000 -1.717273 -10.220453 -11.901586 -1.478606 -2.925792 16.715765 
0.320335 0.036978 -0.173771 -1.666448 -3.269592 -1.318697 0.000000 0.000000 0.000000 -0.668911 0.571603 4.008997 -0.772180 0.135465 2.363826 0.000000 0.000000 0.000000 -0.902486 -0.282695 1.160312 1.961626 -1.662024 6.043383 -1.018402 -0.101181 2.379856 -5.405134 5.299556 -0.453575 -65.413874 0.050773 38.816213 0.047011 -10.191394 0.147475 -1.133648 -0.078888 1.929215 9.294459 -2.605286 0.307128 50.071079 30.858229 -3.283042 179.377644 48.434361 -179.844383 -0.000000 0.000000 -0.000000 1.013921 11.694912 -16.460615 3.484020 5.568169 18.279246 -0.000000 0.000000 0.000000 -1.574268 -10.133275 -12.059079 -0.981970 -2.386217 16.765372 
0.476502 0.029239 -0.237666 -1.882989 -3.314266 -1.199040 0.000000 0.000000 0.000000 -0.858686 0.810345 4.403220 -0.993666 0.094239 2.508951 0.000000 0.000000 0.000000 -1.156678 -0.296234 1.289123 1.678049 -2.078179 7.344265 -1.184144 -0.273330 2.410747 -4.821707 5.639489 -0.500284 -67.276079 -1.892725 37.322826 0.047831 -8.563258 0.141957 -1.354798 -0.117998 2.172441 9.132748 -3.348183 0.250492 48.742351 34.608684 -5.296348 179.438059 44.656272 -179.756276 -0.000000 0.000000 -0.000000 1.149258 11.961666 -16.718504 3.575261 5.469927 18.589621 -0.000000 0.000000 0.000000 -1.513342 -9.941344 -12.139967 -0.598946 -2.125660 16.807310 
0.639262 0.024208 -0.298008 -2.029365 -3.395876 -1.125549 0.000000 -0.000000 0.000000 -1.019461 0.867943 4.601964 -1.197658 0.098934 2.545487 0.000000 0.000000 0.000000 -1.354924 -0.320129 1.335631 1.891896 -2.381365 8.206619 -1.305551 -0.392035 2.488353 -4.409750 5.466764 -0.455832 -68.627589 -2.969629 36.446554 0.077905 -7.698667 0.125251 -1.551988 -0.168257 2.218446 8.816356 -3.353994 0.271434 48.166636 36.613741 -6.428563 179.414843 43.026816 -179.711382 -0.000000 0.000000 -0.000000 1.221930 12.066512 -16.891227 3.569654 5.280922 18.889197 -0.000000 0.000000 0.000000 -1.466143 -9.760292 -12.134025 -0.376225 -1.982913 16.690351 
0.794224 0.020178 -0.356016 -2.130370 -3.470353 -1.059458 0.000000 -0.000000 0.000000 -1.017547 0.841370 4.756134 -1.291987 0.102331 2.556126 0.000000 0.000000 0.000000 -1.468307 -0.326706 1.343414 2.318703 -2.658910 8.615876 -1.396781 -0.391264 2.510981 -4.036613 5.571003 -0.461973 -69.359463 -3.432497 35.395607 0.096246 -7.785842 0.149708 -1.658436 -0.159101 2.180727 8.406928 -3.192078 0.293339 47.979376 37.242949 -6.703996 179.399727 42.321045 -179.714200 -0.000000 0.000000 -0.000000 1.251561 12.131859 -17.023520 3.525798 5.058370 19.081597 -0.000000 0.000000 0.000000 -1.421218 -9.708312 -12.162525 -0.232386 -1.794531 16.609021 
